<?xml version="1.0" encoding="UTF-8"?>
<svg id="Layer_1" data-name="Layer 1" xmlns="http://www.w3.org/2000/svg" viewBox="0 0 729.04 692.81">
  <defs>
    <style>
      .cls-1 {
        fill: #f1f5f9;
      }
    </style>
  </defs>
  <path class="cls-1" d="M285.79,195.85h-62.71c-29.52,0-53.45,23.93-53.45,53.45v443.51h116.17c29.52,0,53.45-23.93,53.45-53.45V249.3c0-29.52-23.93-53.45-53.45-53.45Z"/>
  <path class="cls-1" d="M675.54,0h-398.53l-32.32,13.68v124.82s32.32,13.56,32.32,13.56h272.22l-160.66,468.69c-12.97,34.92,12.86,72.06,50.11,72.06h80.07L725.94,71.28c12.31-34.78-13.49-71.28-50.39-71.28Z"/>
  <path class="cls-1" d="M238.28,131.09V20.03c-17.96,2.64-37.88-.88-55.72-4.36C164.31,12.11,147.28,6.59,129.97.02L0,66.47h91.37c.66,0,6.2-6.47,10.57-7.6,25.51-6.58,29.36,35.28,3.6,33.89-7.49-.4-13.33-8.12-14.17-8.12H0l129.97,66.45c17.39-6.61,34.24-12.09,52.59-15.65,17.85-3.46,37.75-7,55.72-4.36Z"/>
</svg>