<?xml version="1.0" encoding="UTF-8"?>
<svg id="Messy" xmlns="http://www.w3.org/2000/svg" viewBox="0 0 1000 1000">
  <defs>
    <style>
      .cls-1 {
        fill: #fff;
      }
    </style>
  </defs>
  <g>
    <path class="cls-1" d="M662.59,777.78c-1.49-7.86-4.68-14.84-16.74-31.08-20.08-27.04-39.2-45.37-43.03-49.01-15.02-14.27-35.64-32.54-61.94-52.25-62.09-46.81-137.18-105.31-227.76-173-1.11,28.28-2.03,65.99-1.5,108.35.35,28.67,1.36,59.2,23.21,74.77,22.74,16.21,53.75,6.03,58.27,17.65,4.38,11.28-24.43,21.76-42.14,51.28-25.5,42.5-5,86.17-16.14,89.95-10.76,3.65-41.05-33.32-64.78-85.65-37.69-83.08-20.65-120.63-27.56-317.87-4.06-115.81-12.5-175.87,27.79-205.96,13.41-10.02,43.79-25.34,49.31-54.64,4.36-23.15-9.66-39.84-4.48-42.87,7.97-4.69,53.65,27.87,56.48,68.09,1.98,28.22-18.49,41.14-36.58,72.31-4.2,7.22-7.09,13.41-9.14,19.83-1.69,5.31-2.85,9.85-3.65,14.34-1.67,9.35-6.86,46.25-2.81,71.42,3.39,21.1,14.9,44.17,62.74,88.99,48.11,45.07,57.22,44.7,101.91,79.91,58.17,45.82,113.63,82.53,165.36,132.48,4.06,3.92,10.31,4.45,14.98,1.27.26-.17.51-.35.77-.53,25.72-18.3,23.21-74.77,23.21-74.77-2.99-99.68-4.49-149.52-4.24-159.73,1.31-54.78,4.85-106.62-10.02-153.37-2.04-6.42-4.94-12.61-9.13-19.83-18.09-31.16-38.56-44.08-36.58-72.31,2.83-40.22,48.51-72.78,56.48-68.09,5.17,3.03-8.84,19.72-4.48,42.87,5.52,29.31,35.9,44.62,49.31,54.64,40.29,30.09,31.85,90.16,27.79,205.96,0,0,1.76,144.3-9.94,268.05-.83,8.78-2.77,27.92-11.47,50.98-12.58,33.36-31.13,53.27-42.44,65.15-3.15,3.31-27.72,28.91-34.07,24.51-4.86-3.37,7.22-19.5,2.99-41.84Z"/>
    <path class="cls-1" d="M535.15,742.64c4.88,5.52-1.34,9.37,1.88,24.65,4.32,20.48,12.85,26.23,10.91,40.38-.71,5.24-1.86,4.34-13.65,26.99-1.95,3.76-8.28,15.96-14.79,29.94-9.25,19.89-12.1,28.83-13.96,28.38-1.53-.37-.25-6.66.07-31.21.21-15.43.31-23.14,0-24.21-.17-.62-.78-2.53-.07-4.57.74-2.13,2.28-2.55,3.66-4.39,2.02-2.71,2.14-6.37,1.65-8.37-1.19-4.81-7.63-6.68-10.31-8-.18-.09-.36-.18-.54-.29-.18.1-.37.2-.55.29-2.68,1.32-9.12,3.19-10.31,8-.49,2-.37,5.67,1.64,8.37,1.39,1.85,2.91,2.26,3.66,4.39.72,2.04.11,3.95-.07,4.57-.3,1.07-.21,8.78,0,24.21.33,24.55,1.61,30.84.07,31.21-1.85.45-4.7-8.5-13.95-28.38-6.51-13.98-12.84-26.18-14.79-29.94-11.79-22.66-12.94-21.76-13.65-26.99-1.25-9.14,8.07-26.81,10.92-40.38,3.27-15.58-3.24-20.8,2.01-26.18,4.68-4.79,10.89-1.71,30.93-1.05,25.64.85,33.79-3.58,39.24,2.58Z"/>
    <path class="cls-1" d="M499.6,237.15c-7.87.24-8.14,17.34-23.31,30.48-5.63,4.88-13.46,9.33-30.58,12.7-55.75,10.98-95.21-12.07-108.08,4.63-2.84,3.68-2.67,12.42-2.39,29.88.34,21.36.51,32.05,6.57,37.65,6.69,6.19,14.03,2.53,52,1.79,23.99-.47,29.15.84,32.28,1.79,6.33,1.93,25.03,8.74,33.76,26.13,3.54,7.05,4.21,13.4,4.49,25.27,1.2,50.54-8.08,61.9,1.07,77.55,3.4,5.82,3.61,2.42,30.61,23.46,26.21,20.42,33.68,29.61,39.45,26.9,3.86-1.82,4.43-7.79,4.18-32.87-.32-33.4-.48-50.11-1.79-63.35-3.06-31-6.32-36.16-1.79-47.82,6.63-17.06,21.42-26.14,25.7-28.69,2.82-1.68,14.15-8.13,38.85-9.56,38.61-2.24,55.73,11.03,63.95,1.79,3.47-3.9,1.13-7.05-.9-39.1-1.54-24.34-.42-26.18-3.29-29.64-7.04-8.49-19.01-3.68-66.27-2.66-22.59.49-36.13-.19-50.88-6.9-3.8-1.73-10.31-4.7-17.54-10.58-17.52-14.26-18.86-29.09-26.1-28.87Z"/>
    <path class="cls-1" d="M465.53,613.99c-5.93,2.37-5.48,12.18-6.57,53.79-1.01,38.47-2.88,49.74,5.38,56.18,3.37,2.63,10.97,3.58,26.15,5.48,10.71,1.34,18.56,1.37,26.3.4,8.87-1.12,13.3-1.68,16.51-4.91,3.56-3.59,4.39-8.69,3.36-26.07-1.05-17.65-1.62-26.46-2.99-29.88-.3-.76-1.37-2.98-3.34-6.05-8.48-13.18-20.37-19.87-30.31-26.21-26.76-17.06-29-24.92-34.49-22.73Z"/>
  </g>
  <g>
    <path class="cls-1" d="M500.15,107.01c-5.49,22.9-24.37,42.06-47.19,47.89,22.44,6.03,41.1,24.47,47.41,46.83,5.79-22.44,24.28-41.14,46.66-47.17-22.81-6.04-41.15-24.66-46.88-47.55"/>
    <path class="cls-1" d="M497.99,106.41c-4.2,17.31-16.07,32.29-31.67,40.81-4.41,2.41-9.09,4.25-13.95,5.51-2.15.56-2.12,3.75,0,4.32,16.98,4.62,31.63,16.39,40.21,31.71,2.4,4.29,4.29,8.83,5.64,13.56.6,2.1,3.76,2.17,4.32,0,4.43-16.99,16.19-31.65,31.52-40.11,4.3-2.37,8.84-4.2,13.57-5.49,2.13-.58,2.14-3.75,0-4.32-17.08-4.58-31.69-16.41-39.96-32.02-2.35-4.43-4.12-9.11-5.35-13.97-.71-2.79-5.03-1.61-4.32,1.19,4.61,18.21,17.03,34.08,33.49,43.11,4.72,2.59,9.76,4.61,14.96,6v-4.32c-18.01,4.91-33.61,17.62-42.43,34.03-2.5,4.65-4.46,9.6-5.79,14.7h4.32c-5.13-18-17.86-33.55-34.28-42.48-4.65-2.53-9.59-4.53-14.7-5.92v4.32c18.31-4.73,34.2-17.65,43.01-34.34,2.52-4.78,4.47-9.86,5.75-15.11.68-2.8-3.64-4-4.32-1.19h0Z"/>
  </g>
</svg>